<?xml version="1.0" standalone="no"?>
<!DOCTYPE svg PUBLIC "-//W3C//DTD SVG 20010904//EN"
 "http://www.w3.org/TR/2001/REC-SVG-20010904/DTD/svg10.dtd">
<svg version="1.0" xmlns="http://www.w3.org/2000/svg"
 width="225.000000pt" height="225.000000pt" viewBox="0 0 225.000000 225.000000"
 preserveAspectRatio="xMidYMid meet">

<g transform="translate(0.000000,225.000000) scale(0.100000,-0.100000)"
fill="#000000" stroke="none">
<path d="M1013 1484 c-3 -9 -13 -14 -24 -11 -23 6 -30 -22 -12 -44 19 -23 7
-169 -13 -169 -16 0 -19 -26 -4 -35 6 -3 10 -16 10 -28 0 -13 9 -26 22 -32 13
-6 24 -18 26 -29 4 -21 50 -65 69 -66 6 0 16 12 21 28 18 45 29 57 44 45 20
-16 85 -25 93 -13 3 5 14 10 25 10 16 0 17 4 8 39 -8 32 -6 45 11 79 l21 40
-36 21 c-20 12 -41 36 -50 56 -8 20 -36 56 -61 80 -42 41 -51 45 -95 45 -35 0
-50 -4 -55 -16z"/>
<path d="M740 1232 c0 -42 28 -130 55 -171 34 -54 93 -106 155 -138 50 -26 64
-28 165 -28 101 0 114 2 163 28 72 38 132 95 166 157 l27 50 -50 0 c-47 0 -53
-3 -98 -51 -56 -60 -102 -85 -171 -95 -146 -19 -281 77 -313 222 l-12 54 -44
0 c-41 0 -43 -2 -43 -28z"/>
<path d="M719 683 c-13 -80 -16 -88 -39 -93 -18 -4 -26 -13 -28 -33 -3 -25 0
-27 31 -27 57 0 76 24 92 115 21 118 20 125 -14 125 -28 0 -28 -1 -42 -87z"/>
<path d="M835 738 c-32 -193 -32 -198 4 -198 28 0 29 2 36 63 11 95 22 101 30
14 7 -73 9 -77 31 -77 19 0 28 9 39 38 9 20 24 55 35 77 18 37 19 38 15 10
-19 -132 -20 -125 12 -125 l30 0 16 100 c24 139 25 132 -29 128 l-46 -3 -28
-70 -28 -70 -6 38 c-3 20 -8 53 -11 72 -6 34 -7 35 -50 35 -42 0 -44 -2 -50
-32z"/>
<path d="M1157 655 l-57 -115 30 0 c19 0 33 7 40 20 8 15 21 20 50 20 33 0 40
-3 40 -20 0 -16 7 -20 34 -20 l33 0 -13 58 c-7 31 -18 83 -24 115 -11 55 -12
57 -43 57 -31 0 -35 -4 -90 -115z m93 -2 c0 -16 -6 -23 -20 -23 -23 0 -25 9
-8 45 13 29 28 17 28 -22z"/>
<path d="M1411 744 c-58 -48 -35 -105 47 -119 33 -5 42 -11 40 -23 -4 -20 -46
-28 -61 -13 -13 13 -77 15 -77 2 0 -5 9 -19 19 -32 39 -49 172 -22 187 37 12
49 -10 71 -88 88 -32 7 -37 32 -9 41 21 6 51 -3 51 -16 0 -5 14 -9 30 -9 38 0
39 21 4 49 -39 31 -104 28 -143 -5z"/>
<path d="M1220 450 c0 -5 4 -10 9 -10 6 0 13 5 16 10 3 6 -1 10 -9 10 -9 0
-16 -4 -16 -10z"/>
<path d="M616 431 c-21 -23 -18 -70 5 -84 20 -13 72 0 66 16 -2 7 -16 11 -30
9 -23 -3 -27 0 -27 21 0 28 18 38 50 30 17 -4 21 -2 18 8 -7 23 -61 23 -82 0z"/>
<path d="M1016 438 c-3 -7 -7 -32 -10 -55 -5 -34 -3 -43 8 -43 8 0 16 12 18
27 4 39 28 42 28 4 0 -42 18 -39 26 3 7 42 -1 59 -27 51 -13 -4 -19 -2 -19 9
0 19 -19 21 -24 4z"/>
<path d="M1116 434 c-3 -9 -6 -33 -6 -55 0 -32 3 -39 20 -39 17 0 19 4 14 26
-4 16 -2 29 6 34 9 6 9 12 -1 29 -16 25 -25 27 -33 5z"/>
<path d="M833 423 c-7 -2 -13 -9 -13 -14 0 -6 5 -7 10 -4 6 3 16 3 22 -1 9 -6
5 -10 -12 -14 -16 -4 -26 -14 -28 -28 -3 -18 1 -21 30 -19 38 2 48 12 48 48 0
32 -24 46 -57 32z m27 -53 c0 -5 -7 -10 -16 -10 -8 0 -12 5 -9 10 3 6 10 10
16 10 5 0 9 -4 9 -10z"/>
<path d="M1192 414 c-25 -17 -29 -46 -7 -64 17 -14 47 -10 52 7 3 7 -3 9 -16
6 -12 -3 -21 -1 -21 6 0 6 11 11 25 11 29 0 36 34 9 44 -20 8 -16 9 -42 -10z
m33 -14 c3 -5 -1 -10 -10 -10 -9 0 -13 5 -10 10 3 6 8 10 10 10 2 0 7 -4 10
-10z"/>
<path d="M1298 422 c-22 -3 -28 -9 -28 -27 0 -13 -3 -30 -6 -39 -4 -10 -1 -16
9 -16 8 0 17 13 21 30 7 39 26 39 26 -1 0 -38 24 -35 28 4 2 16 10 27 18 27
12 0 14 -7 9 -30 -5 -23 -3 -30 8 -30 17 0 30 60 16 75 -10 10 -53 13 -101 7z"/>
<path d="M1442 414 c-24 -17 -29 -43 -10 -62 17 -17 42 -15 61 6 22 25 21 49
-2 62 -25 13 -22 13 -49 -6z m36 -31 c-5 -25 -28 -28 -28 -4 0 12 6 21 16 21
9 0 14 -7 12 -17z"/>
<path d="M1542 414 c-37 -26 -19 -81 24 -72 24 4 31 30 8 26 -11 -2 -20 4 -22
15 -3 13 3 17 22 17 29 0 35 14 10 24 -20 8 -16 9 -42 -10z"/>
<path d="M714 406 c-3 -8 -4 -25 -2 -38 2 -19 10 -23 41 -25 33 -2 37 0 37 22
0 13 3 30 6 39 4 10 1 16 -9 16 -9 0 -17 -10 -19 -22 -5 -32 -28 -35 -28 -4 0
28 -17 35 -26 12z"/>
<path d="M908 400 c-4 -55 -4 -55 34 -56 37 -1 47 11 48 59 0 28 -28 19 -32
-10 -4 -34 -24 -31 -21 3 1 15 -4 24 -13 24 -8 0 -15 -9 -16 -20z"/>
</g>
</svg>
